<?xml version="1.0" encoding="utf-8"?>
<!-- Generator: Adobe Illustrator 21.1.0, SVG Export Plug-In . SVG Version: 6.00 Build 0)  -->
<svg version="1.1"
	 id="svg2" inkscape:export-filename="/home/igor/filez/projexx/salzpug/logo-1024.png" inkscape:export-xdpi="75.410004" inkscape:export-ydpi="75.410004" inkscape:version="0.91 r13725" sodipodi:docname="logo-text-as-path.svg" xmlns:cc="http://creativecommons.org/ns#" xmlns:dc="http://purl.org/dc/elements/1.1/" xmlns:inkscape="http://www.inkscape.org/namespaces/inkscape" xmlns:rdf="http://www.w3.org/1999/02/22-rdf-syntax-ns#" xmlns:sodipodi="http://sodipodi.sourceforge.net/DTD/sodipodi-0.dtd" xmlns:svg="http://www.w3.org/2000/svg"
	 xmlns="http://www.w3.org/2000/svg" xmlns:xlink="http://www.w3.org/1999/xlink" x="0px" y="0px" viewBox="0 0 1222.2 603.6"
	 style="enable-background:new 0 0 1222.2 603.6;" xml:space="preserve">
<style type="text/css">
	.st0{fill:#99979D;}
	.st1{fill:url(#SVGID_1_);}
	.st2{fill:url(#SVGID_3_);}
	.st3{clip-path:url(#SVGID_5_);fill:url(#SVGID_7_);}
	.st4{fill:url(#SVGID_8_);}
	.st5{clip-path:url(#SVGID_11_);fill:url(#SVGID_12_);}
	.st6{fill:url(#SVGID_13_);}
	.st7{clip-path:url(#SVGID_16_);fill:url(#SVGID_17_);}
	.st8{fill:url(#SVGID_18_);}
	.st9{fill:url(#SVGID_20_);}
	.st10{clip-path:url(#SVGID_22_);fill:url(#SVGID_24_);}
	.st11{fill:url(#SVGID_25_);}
	.st12{clip-path:url(#SVGID_27_);fill:url(#SVGID_28_);}
	.st13{fill:url(#SVGID_29_);}
	.st14{clip-path:url(#SVGID_31_);fill:url(#SVGID_32_);}
</style>
<sodipodi:namedview  bordercolor="#666666" borderopacity="1.0" fit-margin-bottom="0" fit-margin-left="0" fit-margin-right="0" fit-margin-top="0" id="base" inkscape:current-layer="layer1" inkscape:cx="599.31902" inkscape:cy="286.42975" inkscape:document-units="px" inkscape:pageopacity="0.0" inkscape:pageshadow="2" inkscape:showpageshadow="false" inkscape:window-height="1060" inkscape:window-maximized="0" inkscape:window-width="1918" inkscape:window-x="1080" inkscape:window-y="416" inkscape:zoom="0.7" pagecolor="#ffffff" showgrid="false">
	</sodipodi:namedview>
<path id="path3094" inkscape:connector-curvature="0" class="st0" d="M808,362.3c-0.5-0.5-0.8-27.2-0.8-59.5c0-61,0-61.6-5-61.6
	c-2.6,0-4.3-3-5.8-9.9c-1.6-7.5-3.7-15.6-4.8-18.4c-0.5-1.3-1.7-4.7-2.5-7.6s-2-5.4-2.5-5.8s-2.4,4.2-4.1,10s-3.7,11.7-4.2,13
	s-1.4,4.3-1.8,6.6c-1.2,6.6-4.1,12.1-6.4,12.1c-4.8,0-5,1.6-5,39.5c0,39.7,0.1,39.2-6.6,33.5l-3.5-3l-23.6,0.3l-23.6,0.3l-5.7,8.4
	c-3.1,4.6-5.7,8.9-5.8,9.4s-1.4,2.8-3.1,4.9s-3,4.4-3.1,5c0,0.6-1.2,2.5-2.7,4.3c-2.1,2.5-4.6,3.6-11.7,5c-5,1-10,2.1-11.1,2.6
	c-3.1,1.3-4.8-3.2-4.4-11.3c0.2-5-0.2-7.5-1.5-8.7c-1-0.9-5.7-5.1-10.5-9.3l-8.7-7.6l-54.9,0.1c-43.6,0.1-55.1-0.2-55.5-1.4
	c-0.3-0.8-0.9-4.8-1.3-8.8c-1.9-17.6-1.9-17.6-4.9-19c-1.6-0.7-4-3.5-5.4-6.1c-2.2-4.2-2.5-6.7-2.3-22c0.1-9.5-0.3-18-0.9-18.9
	c-0.6-0.9-3.6-3.7-6.7-6.2l-5.7-4.6l-4.6,3.4c-10.8,8.1-10,6.2-10,24.8c0,10.9-0.4,16.7-1.3,16.7c-0.7,0-3.6,1.1-6.4,2.4
	c-4.7,2.1-5.5,3.2-9.1,11.8c-4.4,10.7-6.1,12.4-12,12.4c-4.2,0-9.8,4.4-9.9,7.6c0,2-8.2,10.5-10.1,10.5c-1.1,0-1.8-4.6-2.7-16.9
	c-1.1-16.8-1.2-16.9-5.1-21c-3.9-4-4-4.4-5-19c-0.6-8.2-1.1-15.8-1.1-16.7s-3.1-5-6.8-9l-6.8-7.2l-7.1,7.3l-7.1,7.3v16.7v16.7
	l-3.9,2.4l-3.9,2.4l-0.9,16.9c-1.2,22.8-1,22.3-12.7,22.3c-6.4,0-10.2-0.6-12-1.8c-2.1-1.5-9.5-1.8-42.2-2.1l-39.6-0.3l-0.8-19.9
	c-0.4-11.3-1.4-21.7-2.3-24.1c-1.7-4.7-7.6-13.8-11.5-17.6c-4.9-4.9-14.5-10.9-20.2-12.6c-3.2-0.9-5.8-2.2-5.9-2.9
	c-0.1-0.7-0.3-3-0.5-5.2c-0.3-4.1-3.1-8-7.1-10.1c-3-1.6-9.2,4.2-9.3,8.6c0,4.8-1.3,8.5-3,8.5c-3.8,0-16.9,8.3-22.7,14.4
	c-11.6,12.1-14.3,19.9-14,40.5c0.1,8.2-0.1,15.4-0.5,16.1c-0.4,0.6-14.6,1.5-31.7,1.9l-31,0.8l-6.2,3.4c-3.4,1.9-8.5,4.8-11.3,6.6
	c-2.8,1.8-5.6,3.2-6.1,3.2s-2,1.1-3.2,2.4s-2.7,2.4-3.2,2.4s-3.3,1.4-6,3.1l-5,3.1l0.6,9.5l0.6,9.5h-3.7
	c-15.1,0.1-63.2,1.3-69.8,1.8L0,359.5v-12.4v-12.4l5.9-6.1c4.8-5,6-7,6.5-11.6c0.7-5.8,3.9-9.6,17.4-20.3c2.6-2,7.7-6.6,11.5-10.1
	l6.8-6.4l0.7-13.1c0.4-7.2,1-16.2,1.3-19.9c0.7-8-0.9-10.2-6.6-9.1c-2,0.4-3.9,0.2-4.3-0.4c-0.4-0.6,1.7-5.6,4.6-11.1
	s8.2-15.4,11.7-22.1s7.1-13.5,8-15.2l1.6-3.1l23.8-0.8c13.1-0.5,34.4-1.1,47.4-1.5c12.9-0.3,24.7-1.2,26.1-1.9
	c3.2-1.6,4.5-11.1,2-14.8c-0.9-1.3-1.6-3.5-1.5-4.8c0-2.6,11.4-18.7,13.2-18.7c0.6,0,2.4,2,3.9,4.5c8.6,13.7,8.8,14.4,7.3,17.5
	c-0.9,1.7-1.1,5-0.5,9.3l0.9,6.6l7.8-0.4c4.3-0.2,9.4-1,11.3-1.7c3.1-1.2,3.8-1,5.6,1.3c1.2,1.4,2.5,4.8,2.9,7.4
	c0.5,2.8,2.3,6.3,4.4,8.5c4.3,4.5,6.4,3.8,12.2-4.2c4.5-6.1,7.1-6.7,10.8-2.5c3.1,3.6,3.9,3.2,6.9-3.3c1.3-2.8,4-7.2,6.1-9.8
	s3.8-5.2,3.8-5.7s1.5-1,3.4-1c2.5,0,5.1,1.7,9.5,6.1l6.1,6.1l3.7-4.5c2.1-2.5,3.7-4.9,3.7-5.5c0-2,5.4-0.8,8.1,1.7
	c3.6,3.4,5.1,1.9,8-8.1c1.2-4,2.7-8.9,3.4-10.9c0.7-2,1.5-4.8,1.9-6.2c0.8-3.3,3.2-3.7,29.3-4.7c10.9-0.4,20.6-1.3,21.4-2
	s1.5-3.3,1.5-5.8c0-3.2,1-5.8,3.3-8.6c9.5-11.4,9.2-11.3,16.4-5.2c2.8,2.3,7.4,6.1,10.3,8.4l5.2,4.2h13.6c10.5,0,14-0.4,15.1-1.8
	c1-1.2,1.4-7.6,1.3-21.4c-0.1-10.8,0.4-20.4,0.9-21.3c1.7-2.6,7.8-1.2,9.4,2.1c0.8,1.6,2.2,3.3,3,3.9c2.6,1.7,22.2,1.3,23.7-0.4
	c0.7-0.8,1.6-7.6,2.1-15.1c0.8-13,0.8-13.8-1.8-16.4c-2.1-2.2-2.6-4-2.3-8.1l0.4-5.3l5.8-0.4c3.2-0.2,6.5,0.2,7.4,1
	c1.1,0.9,1.9,0.9,2.4,0.1c0.5-0.7,6.4-1.1,14.9-1l14.1,0.3l0.4,5.1c0.2,2.9-0.4,6.6-1.5,8.6c-1,1.9-1.5,3.9-1.1,4.3
	s10.6,0.8,22.6,0.8H547l4.7-4.8l4.7-4.8h24.9c21.7,0,25.2-0.3,26.6-2c1.4-1.7,4.4-14.1,6.7-27.9c1.1-6.3,3.3-3.8,4.2,4.7
	c2.3,23.8,3.6,30.7,6.1,32.8c2.9,2.5,15.4,3,17.7,0.7c0.9-0.9,1.4-5.2,1.4-11.3c0-9.8,0-9.9,4.1-13c2.3-1.7,4.5-3.2,5-3.2
	s1.8-0.9,3-1.9c1.2-1.1,3.9-3,6.1-4.2c9.7-5.6,11.4-6,27.3-5.6c14.7,0.3,15.3,0.4,15,2.8c-0.2,1.4,0.1,3.7,0.7,5.2l1,2.7l4.6-3.7
	c2.6-2,5.3-3.7,6.1-3.7s3.5,2.5,6,5.5l4.5,5.5l5.6-5.5c3.1-3,6.4-5.5,7.5-5.5s3.4,1.9,5.2,4.2s3.9,4.2,4.6,4.2s3.3-1.9,5.9-4.2
	c2.6-2.3,5.3-4.2,6.1-4.2s3.5,2,5.9,4.3l4.5,4.3l4-2.8c2.2-1.6,4.5-3.5,5-4.3c1.7-2.6,5.1-1.6,9.3,2.7l4.1,4.2l4.3-4.2
	c5.2-5.1,6.7-5.2,11.2-0.9l3.5,3.3l2.7-3.3c2.2-2.7,3.3-3.2,6.3-2.6c2.3,0.5,4.1,0.2,4.9-0.9c0.7-0.9,2.2-7.9,3.4-15.5
	s2.3-14.6,2.6-15.4c0.6-2,4.3-2,3.9,0c-0.2,0.8,0.3,3.4,1.1,5.7s2.3,8.6,3.4,13.9c1.1,5.3,2.6,10.3,3.3,11.2c0.8,1.1,3,1.3,7.1,0.7
	l5.9-0.8v6.3c0,4.3-0.8,7.6-2.5,10.4c-2.1,3.4-2.5,6-2.5,16.4s0.3,12.6,2.1,13.9c1.6,1.2,11.1,1.6,41.1,1.6
	c39.5,0,46.8-0.7,43.8-4.3c-0.7-0.8-1.1-4.4-0.9-8l0.4-6.4l5.3-0.4c3.8-0.3,6.2,0.3,8.5,2c3.1,2.3,3.2,2.3,6,0.1
	c3.3-2.7,10.7-3,14-0.6c2,1.4,2.7,1.4,4.9-0.1c1.7-1.1,5-1.6,9.1-1.4l6.4,0.4l0.4,6.2c0.3,5.6-0.1,6.7-4,11.4
	c-4,4.8-4.3,5.7-3.6,10.1c0.9,5.6,1.3,10.2,1.6,20.8c0.2,5,0.9,8.1,2.2,9.4c1.8,1.8,2.2,1.8,4.6-0.5c3.2-3,6.2-3.2,7.7-0.4
	c1,1.8,1.5,1.9,4.3,0.4c2.9-1.5,3.4-1.5,5.7,0.8c2.2,2.2,3,2.3,6.1,1.1c3.5-1.3,3.9-1.1,8.8,4.3c5.1,5.6,5.2,5.6,7.3,3.3
	c3-3.3,5.8-2.9,9.3,1.3c2.8,3.3,3.3,3.5,5.6,2.1c1.5-1,2.5-2.8,2.5-4.7c0-3.2,5.1-9.5,7.8-9.5c2,0,6.7,6.7,6.7,9.4
	c0,3.7,3.7,5.9,13.7,8.1c7.4,1.6,9.7,2.6,10.5,4.7c0.9,2.1,3.4,13.1,5.5,23.1c0.3,1.3,1.6,3.1,3,4c3.3,2.1,6,0,6-4.7
	c0-2.5,0.7-3.6,2.7-4.2c1.5-0.5,4.1-1.8,5.7-2.9c4.5-3.1,17.4-2.6,22.9,0.9c2.3,1.5,4.9,2.7,5.7,2.7c1.8,0,6.3,7,6.3,9.8
	c0,1.1,0.9,2.7,1.9,3.6c1.9,1.5,1.9,4.4,0.1,11.8c-1,4.2,0.1,5.2,3.4,3c2.2-1.4,3.4-1.6,5.3-0.6c1.3,0.7,4.3,1.3,6.5,1.3
	c4.1,0,8.1,2.9,8.1,5.9c0,2.7,3,4.5,10,5.9c3.8,0.8,7.7,2.1,8.7,2.9c0.9,0.8,5,4.3,9.1,7.6s9.6,7.9,12.1,10.3l4.6,4.2l0.7,37.3
	c0.4,20.5,0.9,37.6,1.3,37.9c0.3,0.3,0.6,13.9,0.6,30.3v29.7l-24.4-0.3c-13.4-0.2-25.1-0.6-25.8-0.8s-2.1-1.8-3-3.4
	c-3.4-6.3-14.4-22.3-16.7-24.3c-1.3-1.2-6.9-3.3-12.4-4.7l-10-2.5l-0.3-5.4c-1.4-25.8-14.6-45.8-37.1-56.1c-2.7-1.2-5.1-2.7-5.5-3.3
	c-0.4-0.6-0.8-7.2-0.8-14.6c-0.1-15.5-1.2-19.3-6.3-21.9c-4.2-2.2-6.1-1.5-10.9,3.6c-2.8,3-3,4.1-3.4,18.8l-0.4,15.5l-6.3,1.8
	c-17.5,5.1-32,19-38.9,37.3c-1.3,3.6-2,11.4-2.5,27.3c-0.6,22.7-1,24.6-5.7,26.7c-1.4,0.6-4.2,2.1-6.3,3.4
	c-2.9,1.8-6.4,2.4-15.1,2.6l-11.2,0.3l-0.4-6.4c-0.5-8-3.1-10.7-6.9-7.1c-2.6,2.5-8.3,3.1-9.6,1.1c-1.1-1.8-6.1-1.4-7.8,0.6
	c-1.9,2.3-4.2,2.3-7.8-0.1c-2.4-1.6-3.3-1.6-5.4-0.3c-2,1.2-2.5,2.8-2.5,7.3v5.7h-27.7H883v-5c0-6.9-2.6-9.7-7.4-8
	c-2.3,0.8-4.6,0.9-6.2,0.1c-2.9-1.3-6.8-0.8-6.8,0.9c0,0.6-1.1,1.7-2.5,2.4c-2,1.1-3,0.9-4.8-0.8c-3.1-2.8-3.7-1.9-3.9,5.7l-0.2,6.4
	l-21.2,0.3C818.3,363,808.4,362.8,808,362.3L808,362.3z"/>
<g id="text3096">
	<path id="path4153" d="M65.7,371.2c9.1,0,18.2,0.9,27.2,2.8c9.1,1.7,16,4,20.4,6.7c0,19,0.6,32.6,1.8,40.9
		c-3.3,1.9-7.7,3.3-13.2,4.1c-5.3,0.9-10.6,1.3-15.8,1.3c-1.9-13.1-5-22.3-9.3-27.4c-4.3-5.2-10-7.8-17.1-7.8
		c-5.7,0-10.4,1.3-14,3.9c-3.5,2.6-5.2,6.5-5.2,11.6c0,4.5,1.4,8.5,4.1,11.9c2.9,3.3,6.6,6.1,10.9,8.5s10.4,5.3,18.1,8.8
		c10.9,4.8,19.8,9.4,26.7,13.7c7.1,4.3,13.1,10.2,18.1,17.6c5,7.2,7.5,16.3,7.5,27.2c0,17.1-6.3,30.6-18.9,40.6s-30.3,15-53,15
		c-10.7,0-20.3-1.1-28.7-3.4c-8.5-2.4-16.9-6-25.4-10.9c2.2-11.2,3.4-25.9,3.4-44c7.9-2.1,18.3-3.1,31.1-3.1
		c0.7,10.7,1.8,18.9,3.4,24.6c1.7,5.5,4.1,9.5,7.2,11.9c3.3,2.4,7.9,3.6,14,3.6c7.9,0,13.9-1.6,17.9-4.9c4.1-3.5,6.2-7.6,6.2-12.4
		c0-5.5-2.3-10-7-13.5c-4.7-3.6-11.9-7.8-21.7-12.7c-10.5-5-19.1-9.7-25.9-14.2c-6.7-4.5-12.6-10.7-17.6-18.6
		c-4.8-7.9-7.2-17.8-7.2-29.5c0-17.8,5.7-31,17.1-39.6C32.1,375.5,47.1,371.2,65.7,371.2L65.7,371.2z"/>
	<path id="path4155" d="M274.4,521.5c0.3,1.6,0.5,3.8,0.5,6.7c0,5.2-1.1,9.7-3.4,13.7c-16.7,0.3-32.3,3.3-46.6,8.8
		c-3.6-1.4-6.2-3.3-7.8-5.7c-1.4-2.4-2.1-5.4-2.1-9.1c0-4.3,0.6-8.6,1.8-12.9c-3.6,7.9-7.8,13.8-12.7,17.6
		c-8.6,6.4-18.8,9.6-30.5,9.6c-27.6,0-41.4-10.4-41.4-31.1c0-10.9,4.3-19.4,12.9-25.6c8.6-6.2,18.1-10.6,28.5-13.2
		c10.5-2.6,22.9-4.8,37-6.7c0-5.9-0.4-10.5-1.3-14c-0.9-3.5-2.4-6.4-4.7-8.8c-1.6-1.7-3.5-3-6-3.9c-2.4-1-4.8-1.6-7.2-1.6
		c-5.5,0-9.7,2.4-12.7,7.2c-2.9,4.8-4.9,11.8-6,21c-6.9,0-12.4-0.2-16.6-0.5c-4-0.5-7.8-1.5-11.6-2.8c0.3-4.5,0.5-8,0.5-10.6
		c0-6.7-0.8-14.3-2.3-22.8c16.6-6.2,35.1-9.3,55.6-9.3c13.6,0,24.2,1,31.8,3.1c7.6,1.9,13.5,5.2,17.6,9.8c3.8,4,6.7,9.1,8.8,15.3
		c2.1,6.2,3.1,15,3.1,26.4v17.1c0,6.6,0.3,11.3,1,14.2s2,5,3.9,6.2C266.9,520.8,270.1,521.4,274.4,521.5L274.4,521.5z M210.7,490.2
		c-10.9,2.1-18.7,4.8-23.5,8.3c-4.7,3.5-7,7.7-7,12.7c0,7.2,3.3,10.9,9.8,10.9c5.3,0,10.1-2.4,14.2-7.2c4.3-5,6.5-11.7,6.5-20.2
		V490.2L210.7,490.2z"/>
	<path id="path4157" d="M297.4,406.4c-0.3-5-1.9-8.6-4.7-10.9c-2.6-2.4-7.4-4-14.5-4.7c0-8.6,1.1-15.1,3.4-19.4
		c12.1,0,23.3-0.9,33.6-2.6c10.4-1.7,17.8-3.7,22.3-6c6,2.8,9.1,8.3,9.1,16.6v127.1c0,5.9,0.4,10.4,1.3,13.5c1,3.1,2.8,5.3,5.2,6.7
		c2.4,1.2,6,2,10.6,2.3c1.4,4.3,2.1,11,2.1,20.2c-6.4-0.5-21-0.8-43.7-0.8c-22.9,0-37.5,0.3-43.7,0.8c0-9.3,0.8-16,2.3-20.2
		c4.7-0.3,8.1-1.1,10.4-2.3c2.4-1.4,4.1-3.5,4.9-6.5c1-3.1,1.6-7.7,1.6-13.7L297.4,406.4L297.4,406.4z"/>
	<path id="path4159" d="M492.5,501.9c0,19,0.7,32.6,2.1,40.9c-1.9,4.1-6,6.2-12.2,6.2c-9.5,0-17.3-0.1-23.3-0.3l-28.7-0.3
		c-20.2,0-36.5,0.2-48.9,0.5c-1.6-2.4-2.8-5.3-3.9-8.8c-1-3.6-1.6-7.1-1.6-10.4c21.4-29.3,39.4-56.2,54.1-80.5h-4.4
		c-4.8,0-8.6,0.7-11.4,2.1c-2.6,1.4-4.7,3.9-6.5,7.5c-1.6,3.5-2.9,8.6-4.1,15.5c-5.3,0.3-10.5,0.2-15.5-0.5s-9.1-1.9-12.2-3.6
		c2.1-10.5,3.1-24.2,3.1-41.1c10.7,0.5,29.1,0.8,55.1,0.8c22.4,0,39.3-0.3,50.7-0.8c2.8,4.1,4.1,9.6,4.1,16.3
		c-13.3,24.3-30.8,52.2-52.5,83.6h10.1c5.3,0,9.3-0.9,11.9-2.8c2.8-1.9,4.7-4.9,6-9.1c1.2-4.1,2.1-10.2,2.6-18.1
		C476.3,498.5,484.8,499.5,492.5,501.9L492.5,501.9z"/>
	<path id="path4161" d="M589.5,472.1c6.2,0,11.4-3,15.5-9.1c4.3-6.2,6.5-15.9,6.5-29c0-12.1-2.4-21.8-7.2-29.2
		c-4.7-7.6-11.4-11.4-20.2-11.4c-4.5,0-8.2,0.6-11.1,1.8v102.2c0,11.2,2,19.1,6,23.8c4,4.5,11.4,7.1,22.3,7.8
		c1.6,4.3,2.3,11,2.3,20.2c-9.8-0.5-26.2-0.8-49.2-0.8c-22.9,0-40.4,0.3-52.3,0.8c0-8.8,0.6-15.5,1.8-20.2c5-0.3,8.6-1.3,10.9-2.8
		c2.4-1.6,4.1-4.2,4.9-8c1-4,1.6-10,1.6-18.1v-78.7c0-8.1-0.4-14-1.3-17.6c-0.7-3.6-2.2-6.1-4.4-7.5c-2.2-1.6-6-2.7-11.1-3.4
		c-1.6-6.2-2.3-12.9-2.3-20.2c16.4,0.5,31.3,0.8,44.8,0.8c9.3,0,16.6-0.1,21.7-0.3L603,373c20,0,34.6,5.3,43.7,15.8
		c9.3,10.4,14,23.9,14,40.6c0,11.9-2.6,22.7-7.8,32.3c-5,9.5-12.2,17.1-21.5,22.8c-9.1,5.5-19.8,8.3-32.1,8.3
		c-7.4,0-13.4-0.9-17.9-2.6c-0.3-2.8-0.5-4.8-0.5-6.2c0-4.8,0.9-9,2.8-12.4C585.2,471.9,587.1,472.1,589.5,472.1z"/>
	<path id="path4163" d="M813.1,476.8c0,15.7-1.1,28.3-3.4,37.8c-2.2,9.3-6.3,16.8-12.2,22.5c-9.8,9.1-25.1,13.7-45.8,13.7
		c-17.3,0-30.9-2.2-40.9-6.5c-10-4.5-17.2-11.3-21.5-20.4c-4.1-9.3-6.2-21.7-6.2-37.3v-63.9c0-8.1-0.5-14.1-1.6-17.9
		c-0.9-4-2.4-6.7-4.7-8.3s-5.9-2.8-10.9-3.6c-1.4-5.9-2.1-12.6-2.1-20.2c7.1,0.5,18.8,0.8,35.2,0.8c27.6,0,45.5-0.3,53.8-0.8
		c0,8.6-0.5,15.4-1.6,20.2c-5,0.9-8.6,2.1-10.9,3.6c-2.1,1.6-3.5,4.2-4.4,8s-1.3,9.8-1.3,18.1v59.5c0,16,2.4,28,7.2,36
		c4.8,7.8,12.1,11.6,21.7,11.6c4.3,0,8.5-0.9,12.4-2.6c4-1.9,7.2-4.7,9.8-8.5c2.4-3.6,4.2-8.8,5.4-15.5s1.8-16.4,1.8-29v-46.6
		c0-8.6-0.5-15.3-1.6-19.9c-1-4.7-2.8-8-5.2-10.1c-2.4-2.2-5.9-3.8-10.4-4.7c-1-7.1-1.6-13.8-1.6-20.2c7.1,0.5,16.7,0.8,29,0.8
		c12.1,0,21.3-0.3,27.7-0.8c0,8.5-0.7,15.2-2.1,20.2c-4.5,0.7-7.9,2.1-10.4,4.1c-2.2,1.9-3.8,5-4.7,9.3s-1.3,10.6-1.3,18.9
		L813.1,476.8L813.1,476.8z"/>
	<path id="path4165" d="M942.4,501.6c0-5.2-0.5-9.1-1.6-11.6c-0.9-2.8-2.6-4.7-5.2-5.7c-2.4-1-6.2-1.7-11.4-2.1
		c-1-5.5-1.6-12.2-1.6-19.9c6.7,0.5,18.5,0.8,35.5,0.8c17.3,0,29.5-0.2,36.7-0.5c0,8.1-0.5,14.7-1.6,19.7c-4.3,0.3-7,1.5-8,3.4
		s-1.6,5.9-1.6,11.9v6.2c0,6.6,0.3,11.6,0.8,15c0.7,3.5,1.9,7.4,3.6,11.9c-8.3,6-18.2,11-29.8,14.7c-11.4,3.6-23.4,5.4-36,5.4
		c-18.3,0-34.2-3.8-47.9-11.4c-13.6-7.8-24.2-18.5-31.6-32.1c-7.2-13.8-10.9-29.7-10.9-47.6c0-19,4.1-35.1,12.4-48.4
		c8.3-13.3,19.3-23.3,33.1-30s29.1-10.1,45.8-10.1c10.4,0,20.8,1.3,31.3,3.9c10.7,2.6,20.2,5.8,28.5,9.6
		c-1.9,10.9-2.8,24.2-2.8,40.1c-3.3,1.6-7,2.6-11.1,3.1c-4,0.3-8.8,0.5-14.5,0.5c-0.7-13.1-3.8-22.5-9.3-28.2
		c-5.3-5.9-13.2-8.8-23.5-8.8c-12.8,0-22.2,6-28.2,17.9s-9.1,26.7-9.1,44.2c0,14.8,1.6,28.1,4.9,39.8c3.5,11.6,8.3,20.6,14.5,27.2
		c6.2,6.4,13.5,9.6,21.7,9.6c3.8,0,6.6-0.3,8.5-1c2.8-1,4.7-2.8,6-5.4c1.4-2.6,2.1-7,2.1-13.2v-8.9H942.4z"/>
</g>
<linearGradient id="SVGID_1_" gradientUnits="userSpaceOnUse" x1="967.725" y1="247.8591" x2="1136.3917" y2="61.1924" gradientTransform="matrix(1 0 0 -1 0 552.9)">
	<stop  offset="0" style="stop-color:#5A9FD4"/>
	<stop  offset="1" style="stop-color:#306998"/>
</linearGradient>
<path class="st1" d="M1059.4,409v5.8h-12.7v-0.1c-0.6,4-2.4,7.9-5.5,11c-3.8,3.8-8.8,5.7-13.8,5.7h-10.7v3.2h-3.6
	c-3.6,16-3.6,26.7,0.6,43.9c3.2,13.5,11,23.1,24.3,23.1h15.7v-20.8c0-15.1,13-28.3,28.5-28.3h45.6c12.7,0,22.8-10.4,22.8-23.2v-43.5
	c0-12.4-10.4-21.7-22.8-23.7c-7.8-1.3-16-1.9-23.8-1.9s-15.3,0.7-21.8,1.9c-19.3,3.4-22.8,10.6-22.8,23.7v17.4h45.6v5.8H1059.4
	 M1079.3,391.6c-4.7,0-8.6-3.9-8.6-8.7c0-4.8,3.8-8.7,8.6-8.7c4.7,0,8.6,3.9,8.6,8.7S1084,391.6,1079.3,391.6z"/>
<g>
	<g>
		<g>
			
				<linearGradient id="SVGID_3_" gradientUnits="userSpaceOnUse" x1="927.1328" y1="211.1811" x2="1095.7996" y2="24.5144" gradientTransform="matrix(1 0 0 -1 0 552.9)">
				<stop  offset="0" style="stop-color:#5A9FD4"/>
				<stop  offset="1" style="stop-color:#306998"/>
			</linearGradient>
			<path id="SVGID_2_" class="st2" d="M990.7,417.4c-0.6,0.6-0.9,1.3-0.9,2.1c0,0.7,0.3,1.5,0.9,2.1c0.6,0.6,1.4,0.9,2.2,0.9h10.6
				v-5.8H993C992.1,416.5,991.3,416.8,990.7,417.4z"/>
		</g>
		<g>
			<defs>
				<path id="SVGID_4_" d="M990.7,417.4c-0.6,0.6-0.9,1.3-0.9,2.1c0,0.7,0.3,1.5,0.9,2.1c0.6,0.6,1.4,0.9,2.2,0.9h10.6v-5.8H993
					C992.1,416.5,991.3,416.8,990.7,417.4z"/>
			</defs>
			<clipPath id="SVGID_5_">
				<use xlink:href="#SVGID_4_"  style="overflow:visible;"/>
			</clipPath>
			
				<linearGradient id="SVGID_7_" gradientUnits="userSpaceOnUse" x1="926.7622" y1="210.8462" x2="1095.4288" y2="24.1795" gradientTransform="matrix(1 0 0 -1 0 552.9)">
				<stop  offset="0" style="stop-color:#5A9FD4"/>
				<stop  offset="1" style="stop-color:#306998"/>
			</linearGradient>
			<rect x="989.8" y="416.5" class="st3" width="13.7" height="5.8"/>
		</g>
	</g>
</g>
<g>
	<g>
		<g>
			
				<linearGradient id="SVGID_8_" gradientUnits="userSpaceOnUse" x1="940.713" y1="223.4517" x2="1109.3795" y2="36.785" gradientTransform="matrix(1 0 0 -1 0 552.9)">
				<stop  offset="0" style="stop-color:#5A9FD4"/>
				<stop  offset="1" style="stop-color:#306998"/>
			</linearGradient>
			<path id="SVGID_6_" class="st4" d="M990.7,390.1c-0.6,0.6-0.9,1.3-0.9,2.1c0,0.7,0.3,1.5,0.9,2.1c0.6,0.6,1.4,0.9,2.2,0.9h10.6
				v-5.8H993C992.1,389.3,991.3,389.5,990.7,390.1z"/>
		</g>
		<g>
			<defs>
				<path id="SVGID_9_" d="M990.7,390.1c-0.6,0.6-0.9,1.3-0.9,2.1c0,0.7,0.3,1.5,0.9,2.1c0.6,0.6,1.4,0.9,2.2,0.9h10.6v-5.8H993
					C992.1,389.3,991.3,389.5,990.7,390.1z"/>
			</defs>
			<clipPath id="SVGID_11_">
				<use xlink:href="#SVGID_9_"  style="overflow:visible;"/>
			</clipPath>
			
				<linearGradient id="SVGID_12_" gradientUnits="userSpaceOnUse" x1="940.2925" y1="223.0719" x2="1108.9592" y2="36.4052" gradientTransform="matrix(1 0 0 -1 0 552.9)">
				<stop  offset="0" style="stop-color:#5A9FD4"/>
				<stop  offset="1" style="stop-color:#306998"/>
			</linearGradient>
			<rect x="989.8" y="389.3" class="st5" width="13.7" height="5.8"/>
		</g>
	</g>
</g>
<g>
	<g>
		<g>
			
				<linearGradient id="SVGID_13_" gradientUnits="userSpaceOnUse" x1="945.9941" y1="228.2236" x2="1114.6606" y2="41.5569" gradientTransform="matrix(1 0 0 -1 0 552.9)">
				<stop  offset="0" style="stop-color:#5A9FD4"/>
				<stop  offset="1" style="stop-color:#306998"/>
			</linearGradient>
			<path id="SVGID_10_" class="st6" d="M1041.2,402.9v0.1c-0.6-4-2.4-7.9-5.5-11c-3.8-3.8-8.8-5.7-13.8-5.7h-10.7v-3.2h-8.8v45.3
				h8.8v-3.2h10.7c5,0,10-1.9,13.8-5.7c3.1-3.1,4.9-7,5.5-11v0.1h12.7v-5.8h-12.7V402.9z"/>
		</g>
		<g>
			<defs>
				<path id="SVGID_14_" d="M1041.2,402.9v0.1c-0.6-4-2.4-7.9-5.5-11c-3.8-3.8-8.8-5.7-13.8-5.7h-10.7v-3.2h-8.8v45.3h8.8v-3.2h10.7
					c5,0,10-1.9,13.8-5.7c3.1-3.1,4.9-7,5.5-11v0.1h12.7v-5.8h-12.7V402.9z"/>
			</defs>
			<clipPath id="SVGID_16_">
				<use xlink:href="#SVGID_14_"  style="overflow:visible;"/>
			</clipPath>
			
				<linearGradient id="SVGID_17_" gradientUnits="userSpaceOnUse" x1="950.5137" y1="232.3075" x2="1119.1805" y2="45.6408" gradientTransform="matrix(1 0 0 -1 0 552.9)">
				<stop  offset="0" style="stop-color:#5A9FD4"/>
				<stop  offset="1" style="stop-color:#306998"/>
			</linearGradient>
			<polygon class="st7" points="1052.7,383.2 1053.9,390.4 1053.9,428.5 1002.4,428.5 1002.4,383.2 			"/>
		</g>
	</g>
</g>
<linearGradient id="SVGID_18_" gradientUnits="userSpaceOnUse" x1="1147.1055" y1="42.7372" x2="1123.1055" y2="83.7372" gradientTransform="matrix(1 0 0 -1 0 552.9)">
	<stop  offset="0" style="stop-color:#FFD43B"/>
	<stop  offset="1" style="stop-color:#FFE873"/>
</linearGradient>
<path class="st8" d="M1152.1,502v-5.8h12.7v0.1c0.6-4,2.4-7.9,5.5-11c3.8-3.8,8.8-5.7,13.8-5.7h10.7v-3.2h3.6
	c3.6-16,3.6-26.7-0.6-43.9c-3.2-13.5-11-23.1-24.3-23.1h-15.7v20.8c0,15.1-13,28.3-28.5,28.3h-45.6c-12.7,0-22.8,10.4-22.8,23.2
	v43.5c0,12.4,10.4,21.7,22.8,23.7c7.8,1.3,16,1.9,23.8,1.9s15.3-0.7,21.8-1.9c19.3-3.4,22.8-10.6,22.8-23.7v-17.4h-45.6V502H1152.1
	 M1132.2,519.4c4.7,0,8.6,3.9,8.6,8.7s-3.8,8.7-8.6,8.7c-4.7,0-8.6-3.9-8.6-8.7C1123.6,523.3,1127.4,519.4,1132.2,519.4z"/>
<g>
	<g>
		<g>
			
				<linearGradient id="SVGID_20_" gradientUnits="userSpaceOnUse" x1="1217.1417" y1="52.3511" x2="1198.1417" y2="117.3511" gradientTransform="matrix(1 0 0 -1 0 552.9)">
				<stop  offset="0" style="stop-color:#FFD43B"/>
				<stop  offset="1" style="stop-color:#FFE873"/>
			</linearGradient>
			<path id="SVGID_15_" class="st9" d="M1220.8,493.6c0.6-0.6,0.9-1.3,0.9-2.1c0-0.7-0.3-1.5-0.9-2.1s-1.4-0.9-2.2-0.9H1208v5.8
				h10.6C1219.3,494.4,1220.1,494.2,1220.8,493.6z"/>
		</g>
		<g>
			<defs>
				<path id="SVGID_21_" d="M1220.8,493.6c0.6-0.6,0.9-1.3,0.9-2.1c0-0.7-0.3-1.5-0.9-2.1s-1.4-0.9-2.2-0.9H1208v5.8h10.6
					C1219.3,494.4,1220.1,494.2,1220.8,493.6z"/>
			</defs>
			<clipPath id="SVGID_22_">
				<use xlink:href="#SVGID_21_"  style="overflow:visible;"/>
			</clipPath>
			
				<linearGradient id="SVGID_24_" gradientUnits="userSpaceOnUse" x1="1217.4672" y1="52.4464" x2="1198.4672" y2="117.4464" gradientTransform="matrix(1 0 0 -1 0 552.9)">
				<stop  offset="0" style="stop-color:#FFD43B"/>
				<stop  offset="1" style="stop-color:#FFE873"/>
			</linearGradient>
			<rect x="1208" y="488.6" class="st10" width="13.7" height="5.8"/>
		</g>
	</g>
</g>
<g>
	<g>
		<g>
			
				<linearGradient id="SVGID_25_" gradientUnits="userSpaceOnUse" x1="1209.7898" y1="50.2022" x2="1190.7898" y2="115.2022" gradientTransform="matrix(1 0 0 -1 0 552.9)">
				<stop  offset="0" style="stop-color:#FFD43B"/>
				<stop  offset="1" style="stop-color:#FFE873"/>
			</linearGradient>
			<path id="SVGID_19_" class="st11" d="M1220.8,520.9c0.6-0.6,0.9-1.3,0.9-2.1c0-0.7-0.3-1.5-0.9-2.1s-1.4-0.9-2.2-0.9H1208v5.8
				h10.6C1219.3,521.7,1220.1,521.4,1220.8,520.9z"/>
		</g>
		<g>
			<defs>
				<path id="SVGID_26_" d="M1220.8,520.9c0.6-0.6,0.9-1.3,0.9-2.1c0-0.7-0.3-1.5-0.9-2.1s-1.4-0.9-2.2-0.9H1208v5.8h10.6
					C1219.3,521.7,1220.1,521.4,1220.8,520.9z"/>
			</defs>
			<clipPath id="SVGID_27_">
				<use xlink:href="#SVGID_26_"  style="overflow:visible;"/>
			</clipPath>
			
				<linearGradient id="SVGID_28_" gradientUnits="userSpaceOnUse" x1="1210.1154" y1="50.2973" x2="1191.1154" y2="115.2973" gradientTransform="matrix(1 0 0 -1 0 552.9)">
				<stop  offset="0" style="stop-color:#FFD43B"/>
				<stop  offset="1" style="stop-color:#FFE873"/>
			</linearGradient>
			<rect x="1208" y="515.9" class="st12" width="13.7" height="5.8"/>
		</g>
	</g>
</g>
<g>
	<g>
		<g>
			
				<linearGradient id="SVGID_29_" gradientUnits="userSpaceOnUse" x1="1187.3966" y1="43.6565" x2="1168.3966" y2="108.6565" gradientTransform="matrix(1 0 0 -1 0 552.9)">
				<stop  offset="0" style="stop-color:#FFD43B"/>
				<stop  offset="1" style="stop-color:#FFE873"/>
			</linearGradient>
			<path id="SVGID_23_" class="st13" d="M1170.3,508.1V508c0.6,4,2.4,7.9,5.5,11c3.8,3.8,8.8,5.7,13.8,5.7h10.7v3.2h8.8v-45.3h-8.8
				v3.2h-10.7c-5,0-10,1.9-13.8,5.7c-3.1,3.1-4.9,7-5.5,11v-0.1h-12.7v5.8h12.7V508.1z"/>
		</g>
		<g>
			<defs>
				<path id="SVGID_30_" d="M1170.3,508.1V508c0.6,4,2.4,7.9,5.5,11c3.8,3.8,8.8,5.7,13.8,5.7h10.7v3.2h8.8v-45.3h-8.8v3.2h-10.7
					c-5,0-10,1.9-13.8,5.7c-3.1,3.1-4.9,7-5.5,11v-0.1h-12.7v5.8h12.7V508.1z"/>
			</defs>
			<clipPath id="SVGID_31_">
				<use xlink:href="#SVGID_30_"  style="overflow:visible;"/>
			</clipPath>
			
				<linearGradient id="SVGID_32_" gradientUnits="userSpaceOnUse" x1="1185.2777" y1="43.0371" x2="1166.2777" y2="108.0371" gradientTransform="matrix(1 0 0 -1 0 552.9)">
				<stop  offset="0" style="stop-color:#FFD43B"/>
				<stop  offset="1" style="stop-color:#FFE873"/>
			</linearGradient>
			<polygon class="st14" points="1158.8,527.8 1157.6,520.6 1157.6,482.5 1209,482.5 1209,527.8 			"/>
		</g>
	</g>
</g>
<g>
	<path d="M1001.4,577.4c0-0.5,0.3-0.9,0.8-1.1c1.2-0.4,2.4-0.6,3.6-0.6c2.6,0,4.4,1.8,4.4,4.4v3.7c0,2.6-1.8,4.4-4.4,4.4
		c-1,0-1.9-0.3-2.8-0.7v5.1c0,0.5-0.4,0.8-0.8,0.8s-0.8-0.4-0.8-0.8V577.4z M1008.5,580.1c0-1.7-1-2.8-2.8-2.8c-1,0-1.9,0.1-2.8,0.4
		v8.2c0.8,0.7,1.7,1,2.8,1c1.7,0,2.8-1,2.8-2.8V580.1z"/>
	<path d="M1022.3,583.7c0,2.8-1.9,4.7-4.6,4.7c-2.8,0-4.6-1.9-4.6-4.7v-3.3c0-2.8,1.9-4.7,4.6-4.7c2.8,0,4.6,1.9,4.6,4.7V583.7z
		 M1020.7,580.3c0-1.9-1.1-3-3-3c-1.9,0-3,1.1-3,3v3.5c0,1.9,1.1,3,3,3c1.9,0,3-1.1,3-3V580.3z"/>
	<path d="M1032,578.8l-2.4,8.8c-0.1,0.4-0.5,0.7-0.9,0.7c-0.4,0-0.8-0.3-0.9-0.7l-3.2-10.8c0-0.1,0-0.2,0-0.2c0-0.4,0.3-0.8,0.8-0.8
		c0.4,0,0.7,0.2,0.8,0.6l2.6,9l2.4-8.9c0.1-0.4,0.5-0.7,0.9-0.7c0.4,0,0.8,0.3,0.9,0.7l2.4,8.9l2.6-9c0.1-0.4,0.4-0.6,0.8-0.6
		c0.4,0,0.8,0.3,0.8,0.8c0,0.1,0,0.2,0,0.2l-3.2,10.8c-0.1,0.4-0.5,0.7-0.9,0.7c-0.4,0-0.8-0.3-0.9-0.7L1032,578.8z"/>
	<path d="M1043.3,582.6v1.4c0,1.7,1,2.9,2.8,2.9c1,0,1.9-0.3,2.8-0.7c0.1,0,0.2-0.1,0.3-0.1c0.5,0,0.8,0.3,0.8,0.8
		c0,0.3-0.2,0.6-0.5,0.7c-1.1,0.5-2.2,0.8-3.5,0.8c-2.7,0-4.4-1.8-4.4-4.4v-3.7c0-2.6,1.8-4.4,4.4-4.4c2.6,0,4.4,1.8,4.4,4.4v1.3
		c0,0.6-0.5,1.1-1.1,1.1H1043.3z M1048.8,580.1c0-1.7-1-2.8-2.8-2.8c-1.7,0-2.8,1-2.8,2.8v1h5.5V580.1z"/>
	<path d="M1053.6,579.1c0-2,1.4-3.3,3.2-3.3c0.6,0,1.2,0.1,1.7,0.2c0.4,0.1,0.7,0.4,0.7,0.8c0,0.4-0.4,0.8-0.8,0.8
		c-0.1,0-0.3,0-0.4-0.1c-0.4-0.1-0.7-0.1-1.2-0.1c-0.8,0-1.5,0.6-1.5,1.7v8.5c0,0.5-0.4,0.8-0.8,0.8s-0.8-0.4-0.8-0.8V579.1z"/>
	<path d="M1062.5,582.6v1.4c0,1.7,1,2.9,2.8,2.9c1,0,1.9-0.3,2.8-0.7c0.1,0,0.2-0.1,0.3-0.1c0.5,0,0.8,0.3,0.8,0.8
		c0,0.3-0.2,0.6-0.5,0.7c-1.1,0.5-2.2,0.8-3.5,0.8c-2.7,0-4.4-1.8-4.4-4.4v-3.7c0-2.6,1.8-4.4,4.4-4.4c2.6,0,4.4,1.8,4.4,4.4v1.3
		c0,0.6-0.5,1.1-1.1,1.1H1062.5z M1068,580.1c0-1.7-1-2.8-2.8-2.8c-1.7,0-2.8,1-2.8,2.8v1h5.5V580.1z"/>
	<path d="M1072.4,583.9v-3.7c0-2.7,1.7-4.4,4.4-4.4c1,0,1.9,0.3,2.8,0.7v-4.7c0-0.5,0.4-0.8,0.8-0.8c0.5,0,0.8,0.4,0.8,0.8v14.9
		c0,0.5-0.3,0.9-0.8,1.1c-1.2,0.4-2.4,0.6-3.6,0.6C1074.1,588.4,1072.4,586.6,1072.4,583.9z M1074,584.1c0,1.7,1,2.8,2.8,2.8
		c1,0,1.9-0.1,2.8-0.4v-8.2c-0.7-0.7-1.7-1-2.8-1c-1.7,0-2.8,1-2.8,2.8V584.1z"/>
	<path d="M1092,587.8c-0.5-0.1-0.8-0.6-0.8-1.1v-14.9c0-0.5,0.4-0.8,0.8-0.8s0.8,0.4,0.8,0.8v4.7c0.8-0.5,1.8-0.7,2.8-0.7
		c2.7,0,4.4,1.7,4.4,4.4v3.7c0,2.6-1.8,4.4-4.4,4.4C1094.3,588.4,1093.1,588.2,1092,587.8z M1098.4,580.1c0-1.7-1-2.8-2.8-2.8
		c-1,0-2,0.3-2.8,1v8.2c0.9,0.3,1.8,0.4,2.8,0.4c1.7,0,2.8-1,2.8-2.8V580.1z"/>
	<path d="M1106.2,588.1l-4-11.2c0-0.1,0-0.2,0-0.3c0-0.4,0.3-0.8,0.8-0.8c0.3,0,0.7,0.2,0.8,0.5l3.3,9.5l2.9-9.4
		c0.1-0.3,0.4-0.6,0.8-0.6c0.4,0,0.8,0.3,0.8,0.8c0,0.1,0,0.2,0,0.3l-4.3,13.6c-0.6,1.8-2.2,3-4.3,3c-0.4,0-0.8-0.3-0.8-0.8
		c0-0.4,0.4-0.7,0.8-0.8c1.4-0.1,2.3-0.7,2.7-1.9L1106.2,588.1z"/>
	<path d="M1127.2,580.3c0-1.5-0.9-2.3-2.4-2.3c-0.8,0-1.7,0.3-2.3,0.9v8.3c0,0.7-0.6,1.3-1.2,1.3c-0.7,0-1.3-0.6-1.3-1.3v-14.9
		c0-0.7,0.6-1.3,1.3-1.3c0.7,0,1.2,0.6,1.2,1.3v4.1c0.8-0.3,1.7-0.6,2.5-0.6c1.4,0,2.5,0.4,3.4,1.3c0.9,0.9,1.3,2.1,1.3,3.5v6.6
		c0,0.7-0.6,1.3-1.3,1.3s-1.2-0.6-1.2-1.3V580.3z"/>
	<path d="M1142,586.3c0,0.7-0.4,1.3-1.1,1.5c-1.2,0.4-2.6,0.6-3.9,0.6c-1.5,0-2.6-0.4-3.5-1.1c-0.8-0.7-1.3-1.7-1.3-2.9
		s0.4-2.1,1.3-2.8c0.8-0.7,2-1.1,3.5-1.1h2.5v-0.8c0-1-0.8-1.8-2-1.8c-1.1,0-1.8,0.1-2.6,0.7c-0.2,0.1-0.5,0.2-0.7,0.2
		c-0.7,0-1.2-0.5-1.2-1.1c0-0.4,0.2-0.9,0.6-1.1c1.3-0.7,2.4-1,4.2-1c2.7,0,4.2,2,4.2,4.1V586.3z M1139.5,582.9h-2.5
		c-2.1,0-2.2,1.1-2.2,1.5c0,0.4,0.1,1.6,2.2,1.6c0.8,0,1.7-0.1,2.5-0.3V582.9z"/>
	<path d="M1147.1,582.6c-1.3-0.5-2.3-1.5-2.3-3.3c0-2.1,1.8-3.7,4.2-3.7c1.6,0,2.5,0.2,3.3,0.6c0.5,0.2,0.8,0.6,0.8,1.1
		c0,0.6-0.5,1.2-1.2,1.2c-0.2,0-0.4,0-0.6-0.1c-0.6-0.3-1.6-0.5-2.4-0.5c-1,0-1.6,0.5-1.6,1.3c0,0.6,0.5,1,1,1.2l2.4,0.8
		c1.6,0.5,2.6,1.6,2.6,3.4c0,2.1-1.7,3.8-4.3,3.8c-1.4,0-2.6-0.3-3.5-0.7c-0.5-0.2-0.7-0.6-0.7-1.1c0-0.6,0.5-1.2,1.2-1.2
		c0.2,0,0.4,0.1,0.6,0.1c0.7,0.3,1.4,0.6,2.5,0.6c1.2,0,1.8-0.4,1.8-1.3c0-0.9-0.7-1.2-1.6-1.5L1147.1,582.6z"/>
	<path d="M1156.4,581c0-0.8,0.7-1.5,1.6-1.5c0.8,0,1.5,0.7,1.5,1.5c0,0.9-0.7,1.6-1.5,1.6C1157.1,582.5,1156.4,581.8,1156.4,581z"/>
	<path d="M1163.3,572.2c0-0.7,0.6-1.3,1.3-1.3c0.7,0,1.2,0.6,1.2,1.3v3.7h2.3c0.7,0,1.3,0.5,1.3,1.2c0,0.7-0.5,1.2-1.3,1.2h-2.3v6.3
		c0,0.9,0.5,1.5,1.1,1.5c0.7,0,0.8-0.2,1.3-0.2c0.6,0,1.2,0.4,1.2,1.2c0,0.6-0.5,1.1-1.1,1.2c-0.5,0.1-0.9,0.1-1.4,0.1
		c-2,0-3.6-1.5-3.6-3.8V572.2z"/>
	<path d="M1181.6,583.3c0,1.5-0.5,2.8-1.4,3.7c-0.9,0.9-2.2,1.4-3.7,1.4c-1.5,0-2.8-0.5-3.7-1.4c-0.9-0.9-1.4-2.2-1.4-3.7v-2.6
		c0-1.5,0.5-2.8,1.4-3.7c0.9-0.9,2.2-1.4,3.7-1.4c1.5,0,2.8,0.5,3.7,1.4c0.9,0.9,1.4,2.2,1.4,3.7V583.3z M1179.1,580.5
		c0-1.5-1-2.6-2.6-2.6c-1.6,0-2.6,0.9-2.6,2.6v3c0,1.6,0.9,2.6,2.6,2.6s2.6-0.9,2.6-2.6V580.5z"/>
	<path d="M1184.9,581c0-0.8,0.7-1.5,1.6-1.5c0.8,0,1.5,0.7,1.5,1.5c0,0.9-0.7,1.6-1.5,1.6C1185.6,582.5,1184.9,581.8,1184.9,581z"/>
	<path d="M1201.5,583.5c0,1.4-0.5,2.6-1.4,3.5c-0.9,0.9-2.1,1.4-3.5,1.4c-1.3,0-2.6-0.2-3.8-0.6c-0.6-0.2-1.1-0.8-1.1-1.5v-14.1
		c0-0.7,0.6-1.3,1.3-1.3c0.7,0,1.2,0.6,1.2,1.3v4.1c0.8-0.3,1.7-0.6,2.5-0.6c1.4,0,2.5,0.4,3.4,1.3c0.9,0.9,1.3,2.1,1.3,3.5V583.5z
		 M1199,580.3c0-1.5-0.9-2.3-2.4-2.3c-0.9,0-1.7,0.3-2.3,0.9v7c0.8,0.2,1.5,0.3,2.3,0.3c1.5,0,2.4-0.8,2.4-2.3V580.3z"/>
	<path d="M1206.6,583.2c0,1,0.2,1.6,0.5,2.1c0.4,0.5,1,0.8,1.9,0.8c0.9,0,1.8-0.3,2.6-0.6c0.2-0.1,0.3-0.1,0.5-0.1
		c0.6,0,1.2,0.5,1.2,1.1c0,0.5-0.2,0.9-0.6,1.1c-1.2,0.6-2.4,0.8-3.7,0.8c-1.4,0-2.6-0.5-3.5-1.4c-0.9-0.9-1.3-2.1-1.3-3.5v-3
		c0-1.4,0.5-2.6,1.3-3.5c0.9-0.9,2.1-1.4,3.5-1.4c1.4,0,2.6,0.5,3.5,1.4c0.9,0.9,1.4,2.1,1.4,3.5v1.1c0,0.9-0.7,1.6-1.6,1.6H1206.6z
		 M1211.3,580.9c0-2-0.8-2.9-2.4-2.9c-1.5,0-2.3,0.9-2.3,2.9H1211.3z"/>
</g>
</svg>
